:SAMPLES-PER-SECOND 30
:FULLY-SPECIFIED
:DEGREES
378
root  -1.273622194 41.37466611 8.303266811 -169.7109985 -80.54669952 176.8460083
lowerback  15.8913002 4.710390091 -2.788800001
upperback  4.654329777 5.418159962 -1.071490049
thorax  -4.073850155 2.558609962 -0.5888710022
lowerneck  -0.8655989766 7.82614994 -1.379500031
upperneck  3.236660004 10.34300041 3.176500082
head  0.8947449923 5.176919937 1.290070057
lclavicle  0 -9.442270133e-015 7.951389973e-016
lhumerus  -1.775159955 5.953909874 62.05479813
lradius  2.958762416e-031 -1.927321717e-031 146.9199982
lwrist  0 5.296687558e-031 54.54729843
lhand  -1.496451383e-031 -27.76390076 20.11240005
lfingers  90 7.125020027 -90
lthumb  89.89689403 5.08795885 91.16245106
rclavicle  0 -9.442270133e-015 7.951389973e-016
rhumerus  3.534070015 20.01919937 -85.49310303
rradius  -1.614398884e-031 3.140471347e-031 117.2060013
rwrist  7.062250077e-031 5.296687558e-031 -54.43379974
rhand  -7.920061211e-032 -33.2840004 9.303460121
rfingers  -90 -7.125020027 -90
rthumb  -92.93752616 -24.25625642 -97.11982154
rfemur  -18.0685997 15.11909962 -0.08049439639
rtibia  -0 0 41.32080078
rfoot  -0 -14.41639996 -7.831369877
rtoes  5.373923086 19.29304026 -105.8922705
lfemur  -29.08230019 -3.876909971 -1.478379965
ltibia  -0 0 41.31900024
lfoot  4.692051497e-032 1.784700036 -0.02002740093
ltoes  -4.250644065 -19.5611806 -102.515957
379
root  -1.07622447 41.37777794 8.127244814 -169.526001 -80.71829987 176.8530273
lowerback  15.62590027 4.459799767 -2.682130098
upperback  4.557759762 5.133840084 -0.9697329998
thorax  -4.030580044 2.424809933 -0.4708650112
lowerneck  -0.5325919986 7.792240143 -1.391080022
upperneck  3.687239885 10.26990032 3.425630093
head  0.9679020047 5.138770103 1.366340041
lclavicle  0 -9.442270133e-015 7.951389973e-016
lhumerus  -1.097599983 5.569069862 61.52399826
lradius  2.95066315e-031 -1.93969869e-031 146.6799927
lwrist  -7.062250077e-031 5.296687558e-031 54.17219925
lhand  -1.496451383e-031 -27.76390076 20.11240005
lfingers  90 7.125020027 -90
lthumb  89.89689403 5.08795885 91.16245106
rclavicle  0 -9.442270133e-015 7.951389973e-016
rhumerus  4.557579994 19.39599991 -85.22930145
rradius  -1.673413655e-031 3.109426117e-031 118.288002
rwrist  7.062250077e-031 8.827812596e-031 -54.31330109
rhand  -7.920061211e-032 -33.2840004 9.303460121
rfingers  -90 -7.125020027 -90
rthumb  -92.93752616 -24.25625642 -97.11982154
rfemur  -18.40500069 15.77009964 -0.1155090034
rtibia  -0 0 42.77030182
rfoot  -0 -14.39330006 -9.563130379
rtoes  5.373923086 19.29304026 -105.8922705
lfemur  -30.38899994 -2.577559948 -2.27699995
ltibia  -0 0 44.06679916
lfoot  4.414824205e-032 1.168390036 -1.211140037
ltoes  -4.250644065 -19.5611806 -102.515957
380
root  -0.8860666921 41.36333315 7.970466764 -168.7810059 -80.79190063 175.9500122
lowerback  15.63640022 4.270420074 -2.601929903
upperback  4.541500092 4.903210163 -0.9013630152
thorax  -4.049369812 2.312319994 -0.400898993
lowerneck  -0.217407003 7.759840012 -1.42208004
upperneck  4.188280106 10.19859982 3.594209909
head  1.06348002 5.10048008 1.424049973
lclavicle  0 -9.442270133e-015 7.951389973e-016
lhumerus  -0.7333250046 4.664110184 61.50139999
lradius  2.939886761e-031 -1.955993321e-031 146.3630066
lwrist  -7.062250077e-031 3.531125038e-031 52.90499878
lhand  -1.496451383e-031 -27.76390076 20.11240005
lfingers  90 7.125020027 -90
lthumb  89.89689403 5.08795885 91.16245106
rclavicle  0 -9.442270133e-015 7.951389973e-016
rhumerus  5.433889866 18.54780006 -84.97979736
rradius  -1.734033291e-031 3.076031954e-031 119.4110031
rwrist  7.062250077e-031 5.296687558e-031 -54.29759979
rhand  -7.920061211e-032 -33.2840004 9.303460121
rfingers  -90 -7.125020027 -90
rthumb  -92.93752616 -24.25625642 -97.11982154
rfemur  -18.30669975 16.39389992 -0.2058950067
rtibia  -0 0 44.15710068
rfoot  -0 -13.49040031 -10.65789986
rtoes  5.373923086 19.29304026 -105.8922705
lfemur  -31.29800034 -1.284569979 -3.397360086
ltibia  -0 0 46.89870071
lfoot  4.413993929e-032 0.3610360026 -1.925660014
ltoes  -4.250644065 -19.5611806 -102.515957
381
root  -0.7051533132 41.3308902 7.828066668 -168.4580078 -80.71440125 175.1279907
lowerback  15.93400002 4.08825016 -2.443789959
upperback  4.594089985 4.673190117 -0.8631899953
thorax  -4.139920235 2.195179939 -0.4221349955
lowerneck  0.2233780026 7.758780003 -1.485839963
upperneck  4.53181982 10.17510033 3.668910027
head  1.090520024 5.082859993 1.446820021
lclavicle  0 -9.442270133e-015 7.951389973e-016
lhumerus  -0.8246859908 3.502729893 61.79719925
lradius  2.928847573e-031 -1.97248471e-031 146.0410004
lwrist  -7.062250077e-031 5.296687558e-031 51.0984993
lhand  -1.496451383e-031 -27.76390076 20.11240005
lfingers  90 7.125020027 -90
lthumb  89.89689403 5.08795885 91.16245106
rclavicle  0 -9.442270133e-015 7.951389973e-016
rhumerus  6.225049973 17.90379906 -84.83149719
rradius  -1.789632082e-031 3.04402054e-031 120.4520035
rwrist  1.412450015e-030 8.827812596e-031 -54.17020035
rhand  -7.920061211e-032 -33.2840004 9.303460121
rfingers  -90 -7.125020027 -90
rthumb  -92.93752616 -24.25625642 -97.11982154
rfemur  -17.7791996 16.91010094 -0.1694969982
rtibia  -0 0 45.41490173
rfoot  -0 -12.11200047 -10.93249989
rtoes  5.373923086 19.29304026 -105.8922705
lfemur  -31.72480011 -0.06832949817 -4.569129944
ltibia  -0 0 49.71269989
lfoot  6.621111906e-032 -0.5003439784 -1.887789965
ltoes  -4.250644065 -19.5611806 -102.515957
382
root  -0.5350066452 41.27622289 7.692288977 -167.4500122 -80.43260193 173.2860107
lowerback  16.44809914 4.004089832 -2.538719893
upperback  4.735730171 4.513959885 -0.8360379934
thorax  -4.271259785 2.108279943 -0.3367420137
lowerneck  0.667355001 7.777649879 -1.615589976
upperneck  4.832870007 10.18019962 3.71310997
head  1.101330042 5.07777977 1.469210029
lclavicle  0 -9.442270133e-015 7.951389973e-016
lhumerus  -1.276350021 2.562779903 62.0646019
lradius  2.91889602e-031 -1.987181437e-031 145.753006
lwrist  -7.062250077e-031 3.531125038e-031 49.2942009
lhand  -1.496451383e-031 -27.76390076 20.11240005
lfingers  90 7.125020027 -90
lthumb  89.89689403 5.08795885 91.16245106
rclavicle  0 -9.442270133e-015 7.951389973e-016
rhumerus  6.923679829 17.42300034 -84.45870209
rradius  -1.841801448e-031 3.012741519e-031 121.439003
rwrist  0 5.296687558e-031 -54.10969925
rhand  -7.920061211e-032 -33.2840004 9.303460121
rfingers  -90 -7.125020027 -90
rthumb  -92.93752616 -24.25625642 -97.11982154
rfemur  -16.86910057 17.42259979 -0.2504259944
rtibia  -0 0 46.51139832
rfoot  -0 -10.75020027 -10.44190025
rtoes  5.373923086 19.29304026 -105.8922705
lfemur  -31.60160065 0.988083005 -5.960199833
ltibia  -0 0 52.38439941
lfoot  5.518691469e-032 -1.247760057 -1.141469955
ltoes  -4.250644065 -19.5611806 -102.515957
